<svg width="90" height="101" viewBox="0 0 90 101" fill="none" xmlns="http://www.w3.org/2000/svg">
<path fill-rule="evenodd" clip-rule="evenodd" d="M19.5998 58.4967L26.426 70.3196H12.7735L19.5998 58.4967ZM53.9657 70.3229L52.4169 67.6446L63.6652 48.1631L76.4624 70.3263H53.9657V70.3229ZM61.294 83.0112L58.2259 77.6942H89.2002C74.3356 51.9544 59.481 26.208 44.6197 0.468262C29.7584 26.208 14.9037 51.9544 0.0424194 77.6942H30.6864L43.8369 100.468L61.294 83.0112ZM44.6229 33.4603C41.218 39.3586 37.8132 45.2569 34.4083 51.1552L38.6487 58.4967C42.0503 52.5984 45.4584 46.7001 48.8633 40.8018L44.6229 33.4603ZM45.4023 88.4735L23.8468 51.1387C30.7688 39.1539 37.6942 27.1724 44.6163 15.181L59.4149 40.8084L43.9227 67.638C46.6473 72.354 49.3686 77.0667 52.0898 81.7826L45.4023 88.4735Z" fill="white"/>
</svg>
