<svg width="101" height="59" viewBox="0 0 101 59" fill="none" xmlns="http://www.w3.org/2000/svg">
<path fill-rule="evenodd" clip-rule="evenodd" d="M45.1405 0.124238L73.6316 36.8591C73.7616 37.0581 73.9102 37.2465 74.0694 37.4242C74.8972 38.3317 76.0859 38.8995 77.4099 38.8995C81.0316 38.8995 83.1198 34.8771 81.1988 31.924C81.0608 31.7144 80.9069 31.5154 80.7371 31.3296L67.4972 14.2583H89.3497C95.7017 14.2583 100.849 19.4057 100.849 25.7577C100.849 28.1457 100.122 30.3638 98.875 32.2026L80.8379 55.4613C79.0523 57.5176 76.4202 58.8151 73.483 58.8151C70.5325 58.8151 67.8898 57.5017 66.1042 55.4295L56.8203 43.4605L47.5126 55.4613C45.7269 57.5176 43.0948 58.8151 40.1576 58.8151C37.2071 58.8151 34.5645 57.5017 32.7788 55.4295L0.84906 14.2583L11.8125 0.121582L22.7759 14.2583L40.3035 36.8564C40.4362 37.0554 40.5822 37.2438 40.7414 37.4216C41.5665 38.329 42.7578 38.8968 44.0818 38.8968C47.7009 38.8968 49.7917 34.8744 47.8707 31.9213C47.7328 31.7117 47.5789 31.5127 47.4091 31.327L34.1692 14.2557L45.1405 0.124238Z" fill="white"/>
</svg>
