<svg width="183" height="101" viewBox="0 0 183 101" fill="none" xmlns="http://www.w3.org/2000/svg">
<path fill-rule="evenodd" clip-rule="evenodd" d="M144.65 29.8616L132.829 18.0446L50.4136 100.46L49.6823 99.7282C33.5048 83.5506 17.3226 67.3731 1.14508 51.1909L0.418274 50.4642L50.4092 0.46875L59.1946 9.25899L17.9849 50.4642L29.8066 62.2857C50.1653 41.9269 70.5287 21.5635 90.8875 1.20471L91.6188 0.477959L100.405 9.2636L99.6777 9.99035C79.3189 30.3537 58.9556 50.7125 38.5923 71.0713L50.4092 82.8883L132.824 0.473354L133.555 1.20471C149.728 17.3869 165.915 33.5598 182.093 49.742L182.824 50.4687L132.829 100.464L124.043 91.6785L165.253 50.4733L153.436 38.6564C133.077 59.0198 112.714 79.3786 92.3548 99.7374L91.6233 100.469L82.8379 91.6831L83.5691 90.9563C103.928 70.5837 124.287 50.2204 144.65 29.8616Z" fill="white"/>
</svg>
