<svg width="86" height="86" viewBox="0 0 86 86" fill="none" xmlns="http://www.w3.org/2000/svg">
<path fill-rule="evenodd" clip-rule="evenodd" d="M17.2848 42.6761H27.2937V41.8025C27.4871 38.1664 28.77 35.0944 30.7202 32.6993L23.5963 25.5754C21.7976 27.6417 20.289 30.0593 19.1608 32.8218C17.8843 35.9454 17.4331 39.2753 17.2848 42.6761ZM24.976 24.1087L32.0902 31.223C34.8205 28.6442 38.418 27.1162 42.1218 26.8293V16.7623C35.8295 17.0396 29.6437 19.5345 24.976 24.1087ZM44.13 16.7494V26.7971C47.7694 26.9647 51.3732 28.3605 54.2131 31.1682L61.321 24.0603C56.5534 19.3379 50.3643 16.9493 44.13 16.7494ZM62.6941 25.5335L55.5541 32.6736C56.0441 33.2957 56.4987 33.9694 56.9209 34.6947C58.3715 37.209 59.0581 39.9587 59.0452 42.6728H69.1026C69.1155 38.2534 67.9937 33.7695 65.6244 29.666C64.7476 28.1542 63.7676 26.7745 62.6941 25.5335ZM69.0187 44.6843H58.9065C58.4681 48.0271 56.9724 51.2087 54.5612 53.694L61.6756 60.8083C65.9919 56.4146 68.5384 50.6703 69.0187 44.6843ZM60.2088 62.1847L53.0688 55.0446C52.4531 55.5346 51.7923 55.9891 51.0895 56.3953C48.6171 57.7782 46.2768 58.4035 44.1332 58.5389V68.5543C48.227 68.4061 52.3402 67.2843 56.1343 65.0923C57.6074 64.2413 58.971 63.2646 60.2088 62.1847ZM12.8525 57.6976C10.6218 53.1847 9.36785 48.1012 9.36785 42.7277C9.36785 24.0442 24.5118 8.90022 43.1953 8.90022C61.8787 8.90022 77.0194 24.0442 77.0194 42.7277C77.0194 61.4111 61.8754 76.5551 43.1953 76.5551C42.8342 76.5551 42.4764 76.5486 42.1218 76.5389V68.5511V60.4537V58.526C38.1247 58.223 34.9947 56.3308 33.2411 54.9898C32.2322 54.2162 31.6777 53.6295 31.6777 53.6295V56.55V60.4537V65.8853V74.5436V80.2266V83.6629C35.3428 84.6912 39.2046 85.2424 43.1953 85.2424C66.6752 85.2424 85.7099 66.2076 85.7099 42.7277C85.7099 19.2477 66.6752 0.212891 43.1953 0.212891C19.7121 0.212891 0.677307 19.2477 0.677307 42.7277C0.677307 54.3258 5.32238 64.8409 12.8525 72.5096V57.6976V57.6976ZM27.2904 44.6843H17.2267C17.0688 55.2316 17.2396 65.8466 17.2396 76.4003C20.3084 78.7696 23.693 80.7134 27.2937 82.164C27.2905 69.6729 27.2904 57.1786 27.2904 44.6843Z" fill="white"/>
</svg>
